<svg xmlns="http://www.w3.org/2000/svg" viewBox="0 0 256 256">
  <defs>
    <linearGradient id="g" x1="0" y1="0" x2="0" y2="1">
      <stop offset="0%" stop-color="#42a5f5"/>
      <stop offset="100%" stop-color="#1565c0"/>
    </linearGradient>
  </defs>
  <!-- Cloud -->
  <path d="M200 128c0-2.2-.1-4.3-.4-6.4C196.4 92.8 172.4 72 144 72c-18.8 0-35.2 9.6-44.8 24.2C94 92.8 88.2 90 82 90c-17.6 0-32 14.4-32 32 0 1.4.2 2.8.4 4.2C36.4 130.6 24 146 24 164c0 22 18 40 40 40h144c22 0 40-18 40-40 0-18-12-33.2-28-38-6.4-2-12-6-16-10.8-.8-1.2-2-2.2-3-3.2-.4-.4-.6-1-.8-1.4C200.2 130.2 200 128.2 200 128z" fill="url(#g)"/>
  <!-- Sync arrows -->
  <g fill="#fff" opacity="0.9">
    <path d="M148 140l20-20-20-20v12h-32v16h32v12z"/>
    <path d="M108 172l-20 20 20 20v-12h32v-16h-32v-12z"/>
  </g>
</svg>
